<svg width="36" height="32" viewBox="0 0 36 32" fill="none" xmlns="http://www.w3.org/2000/svg">
<g clip-path="url(#clip0_1_42)">
<path d="M27.3198 6.02886C26.9771 5.77178 26.5064 5.64575 25.918 5.64575C25.3348 5.64575 24.8692 5.77178 24.5213 6.02886C24.1735 6.28595 23.9228 6.66403 23.7693 7.15804C23.6158 7.65709 23.5391 8.28721 23.5391 9.04336V9.61299C23.5391 10.3641 23.6158 10.9892 23.7693 11.4983C23.9228 12.0074 24.1735 12.3855 24.5213 12.6426C24.8692 12.8997 25.3348 13.0257 25.918 13.0257C26.5166 13.0257 26.9924 12.8997 27.3352 12.6426C27.678 12.3855 27.9286 12.0074 28.0821 11.5033C28.2356 10.9992 28.3124 10.3742 28.3124 9.62307V9.05344C28.3124 8.2973 28.2356 7.66214 28.077 7.16308C27.9133 6.66403 27.6626 6.28595 27.3198 6.02886Z" fill="black"/>
<path d="M25.6878 0C20.8582 0 16.8574 3.45306 16.0645 7.98488C15.8393 7.65722 15.5938 7.3598 15.3226 7.08759C14.325 6.1046 13.1022 5.60555 11.6851 5.60555C10.2679 5.60555 9.04521 6.1046 8.04757 7.09263C6.73786 8.38815 6.01138 10.3693 5.63279 12.4411H3.50451C1.57063 12.4411 0 13.9887 0 15.8891V28.5419C0 30.4474 1.57063 31.995 3.50451 31.995H19.8503C21.7791 31.995 23.3548 30.4474 23.3548 28.5419V18.9742C24.1018 19.1556 24.8846 19.2615 25.6878 19.2615C31.0852 19.2615 35.4646 14.9515 35.4646 9.62823C35.4646 4.30498 31.0852 0 25.6878 0ZM9.69495 8.71582C10.2475 8.17139 10.8972 7.90422 11.68 7.90422C12.4679 7.90422 13.1176 8.16635 13.665 8.71078C14.4273 9.46692 15.0003 10.7423 15.3482 12.436H8.00153C8.35454 10.7473 8.92754 9.477 9.69495 8.71582ZM21.0168 28.5469C21.0168 29.1821 20.495 29.6963 19.8503 29.6963H3.50451C2.85988 29.6963 2.33804 29.1821 2.33804 28.5469V15.8941C2.33804 15.259 2.85988 14.7448 3.50451 14.7448H5.34117C5.27978 15.5665 5.2542 16.373 5.2542 17.1191C5.2542 17.7543 5.77604 18.2684 6.42066 18.2684C7.06529 18.2684 7.58713 17.7492 7.58713 17.1141C7.58713 16.2773 7.61782 15.4858 7.67922 14.7448H15.6705C15.7319 15.4858 15.7626 16.2722 15.7626 17.1141C15.7626 17.7492 16.2844 18.2634 16.9291 18.2684C17.5737 18.2684 18.0955 17.7543 18.0955 17.1191C18.0955 16.6553 18.0853 16.1664 18.0648 15.6623C18.8732 16.6553 19.8708 17.4871 21.0168 18.1021V28.5469ZM29.3611 11.5337C29.1974 12.1336 28.9569 12.6175 28.65 12.9906C28.343 13.3636 27.9593 13.6308 27.4989 13.7921C27.0435 13.9534 26.5166 14.0391 25.9129 14.0391C25.3194 14.0391 24.7976 13.9584 24.3423 13.7921C23.8869 13.6308 23.4981 13.3636 23.186 12.9906C22.8739 12.6226 22.6335 12.1336 22.4749 11.5337C22.3163 10.9338 22.2344 10.2029 22.2344 9.33586C22.2344 8.46377 22.3163 7.72779 22.4749 7.13296C22.6386 6.53812 22.8739 6.05419 23.186 5.68116C23.4981 5.30813 23.8869 5.046 24.3423 4.87965C24.7976 4.7133 25.3245 4.63768 25.918 4.63768C26.5166 4.63768 27.0435 4.71834 27.4937 4.88469C27.944 5.046 28.3277 5.31317 28.6397 5.6862C28.9518 6.05419 29.1923 6.53812 29.356 7.138C29.5197 7.73283 29.6067 8.46881 29.6067 9.3409C29.6118 10.2029 29.5248 10.9338 29.3611 11.5337Z" fill="black"/>
</g>
<defs>
<clipPath id="clip0_1_42">
<rect width="35.4595" height="32" fill="white"/>
</clipPath>
</defs>
</svg>
