<svg width="163" height="31" viewBox="0 0 163 31" fill="none" xmlns="http://www.w3.org/2000/svg">
<g clip-path="url(#clip0_1_24)">
<path d="M94.5892 24.6883C93.1223 26.9452 91.3066 28.5605 89.1531 29.5341C86.9942 30.5132 84.6138 31 82.0176 31C79.7977 31 77.7827 30.6183 75.9836 29.8494C74.1845 29.086 72.629 28.0128 71.3336 26.6299C70.0327 25.247 69.0363 23.6096 68.3498 21.7177C67.6579 19.8258 67.3146 17.7293 67.3146 15.4336C67.3146 13.2209 67.6689 11.1797 68.383 9.30996C69.0971 7.44022 70.0991 5.81388 71.4 4.43094C72.7009 3.048 74.2288 1.96378 75.9892 1.17827C77.7495 0.392755 79.6981 0 81.8349 0C84.0547 0 86.0144 0.392755 87.7139 1.17827C89.4133 1.96378 90.836 3.00928 91.9874 4.30371C93.1389 5.59814 94.008 7.08066 94.5948 8.73465C95.1816 10.3942 95.475 12.0758 95.475 13.7741V16.4515H71.0789C71.0789 17.2591 71.2339 18.2935 71.5495 19.5437C71.865 20.7994 72.4407 22.0219 73.2766 23.2113C74.1125 24.4006 75.2363 25.424 76.6424 26.2703C78.0429 27.1222 79.8586 27.5482 82.0785 27.5482C84.0049 27.5482 85.8704 27.0835 87.6696 26.1431C89.4687 25.2082 90.8526 23.9304 91.8158 22.3151L94.5892 24.6883ZM91.6941 13.0107C91.6941 11.6941 91.4339 10.4606 90.908 9.30996C90.3821 8.15935 89.6735 7.15257 88.7712 6.27855C87.8689 5.40453 86.8005 4.71306 85.566 4.20414C84.3315 3.69522 83.0195 3.44076 81.6356 3.44076C79.5818 3.44076 77.8768 3.8667 76.515 4.71306C75.1533 5.56495 74.0738 6.54408 73.2766 7.6449C72.4795 8.75125 71.9148 9.82441 71.5772 10.8644C71.2395 11.9099 71.0734 12.618 71.0734 12.9996H91.6941V13.0107Z" fill="black"/>
<path d="M129.531 24.6883C128.064 26.9452 126.254 28.5605 124.095 29.5341C121.936 30.5132 119.555 31 116.959 31C114.739 31 112.724 30.6183 110.925 29.8494C109.126 29.086 107.571 28.0128 106.275 26.6299C104.974 25.247 103.978 23.6096 103.291 21.7177C102.599 19.8258 102.256 17.7293 102.256 15.4336C102.256 13.2209 102.611 11.1797 103.325 9.30996C104.033 7.44022 105.041 5.81388 106.342 4.43094C107.643 3.048 109.17 1.96378 110.931 1.17827C112.691 0.392755 114.64 0 116.777 0C118.996 0 120.956 0.392755 122.655 1.17827C124.355 1.96378 125.778 3.00928 126.929 4.30371C128.081 5.59814 128.95 7.08066 129.536 8.73465C130.123 10.3942 130.417 12.0758 130.417 13.7741V16.4515H106.032C106.032 17.2591 106.192 18.2935 106.502 19.5437C106.818 20.7994 107.393 22.0219 108.229 23.2113C109.065 24.4006 110.189 25.424 111.59 26.2703C112.99 27.1222 114.806 27.5482 117.026 27.5482C118.952 27.5482 120.818 27.0835 122.617 26.1431C124.416 25.2082 125.8 23.9304 126.763 22.3151L129.531 24.6883ZM126.641 13.0107C126.641 11.6941 126.381 10.4606 125.855 9.30996C125.329 8.15935 124.621 7.15257 123.718 6.27855C122.816 5.40453 121.748 4.71306 120.513 4.20414C119.279 3.69522 117.967 3.44076 116.588 3.44076C114.535 3.44076 112.83 3.8667 111.468 4.71306C110.106 5.56495 109.026 6.54408 108.229 7.6449C107.432 8.75125 106.868 9.82441 106.53 10.8644C106.192 11.9099 106.026 12.618 106.026 12.9996H126.641V13.0107Z" fill="black"/>
<path d="M57.8319 8.83986C57.4278 7.20246 56.7027 5.73101 55.756 4.46423C54.8039 3.19746 53.5196 2.16855 51.9751 1.4107C50.4307 0.652848 48.5097 0.265625 46.2788 0.265625C44.0479 0.265625 42.127 0.647317 40.5881 1.4107C39.0436 2.16855 37.7759 3.19746 36.8238 4.46423C35.8716 5.72547 35.2904 7.19692 34.8918 8.83986C34.4877 10.4662 34.3881 12.1921 34.3881 13.9789V30.3695H37.405V14.7699C37.405 13.6082 37.6597 12.347 37.87 11.036C38.0804 9.736 38.5675 8.50795 39.182 7.385C39.7854 6.27865 40.6933 5.34932 41.8004 4.63019C42.902 3.91659 44.4133 3.55149 46.2567 3.55149C48.1001 3.55149 49.6003 3.91659 50.7019 4.63019C51.8091 5.34932 52.6837 6.27865 53.2871 7.385C53.9016 8.50795 54.3444 9.736 54.5548 11.036C54.7651 12.3581 54.9035 13.6193 54.9035 14.7699V30.3695H58.5239V13.9733C58.5184 12.1976 58.2361 10.4662 57.8319 8.83986Z" fill="black"/>
<path d="M143.486 14.7587L158.223 31H163L147.478 14.5209L162.607 0H158.156L143.486 14.3217" fill="black"/>
<path d="M141.294 16.457V0H137.696V31H141.294V16.457Z" fill="black"/>
<path d="M20.5099 0.221283V16.3353C20.5099 17.497 20.3881 18.7527 20.1778 20.0692C19.9674 21.3692 19.5467 22.5973 18.9322 23.7202C18.3233 24.8321 17.4542 25.7559 16.3471 26.475C15.2454 27.1942 13.7508 27.5537 11.9074 27.5537C10.064 27.5537 8.57487 27.1886 7.46772 26.475C6.36057 25.7559 5.49146 24.8266 4.88253 23.7202C4.26806 22.5973 3.99681 21.3692 3.79198 20.0692C3.58163 18.7582 3.62038 17.5025 3.62038 16.3353V0.221283H0V17.1319C0 18.9131 0.110715 20.6446 0.509288 22.2709C0.913398 23.9083 1.55001 25.3797 2.50216 26.6465C3.4543 27.9133 4.69985 28.9422 6.23878 29.7C7.78326 30.4579 9.68202 30.8451 11.9129 30.8451C14.1438 30.8451 16.0537 30.4579 17.5926 29.7C19.1371 28.9422 20.3992 27.9133 21.3514 26.6465C22.3035 25.3853 23.0508 23.9138 23.4549 22.2709C23.8535 20.6446 24.1248 18.9131 24.1248 17.1319V0.221283H20.5099Z" fill="black"/>
</g>
<defs>
<clipPath id="clip0_1_24">
<rect width="163" height="31" fill="white"/>
</clipPath>
</defs>
</svg>
